# Blender 3.5.1
# www.blender.org
mtllib blocTest.mtl
o Cube
v 1.000000 1.000000 -1.000000
v 1.000000 -1.000000 -1.000000
v 1.000000 1.000000 1.000000
v 1.000000 -1.000000 1.000000
v -1.000000 1.000000 -1.000000
v -1.000000 -1.000000 -1.000000
v -1.000000 1.000000 1.000000
v -1.000000 -1.000000 1.000000
vn -0.0000 1.0000 -0.0000
vn -0.0000 -0.0000 1.0000
vn -1.0000 -0.0000 -0.0000
vn -0.0000 -1.0000 -0.0000
vn 1.0000 -0.0000 -0.0000
vn -0.0000 -0.0000 -1.0000
vt 0.880212 0.762963
vt 0.977340 0.739594
vt 0.885372 0.750774
vt 0.375000 0.500000
vt 0.977340 0.656124
vt 0.885372 0.656509
vt 0.880212 0.865285
vt 0.980627 0.746446
vt 0.893870 0.739594
vt 0.979123 0.651706
vt 0.375000 0.750000
vt 0.893870 0.656124
vt 0.982534 0.762963
vt 0.887836 0.744792
vt 0.979638 0.750774
vt 0.887836 0.649253
vt 0.125000 0.500000
vt 0.979638 0.656509
vt 0.982534 0.865285
vt 0.885887 0.747950
vt 0.983374 0.744792
vt 0.884383 0.653210
vt 0.983374 0.649253
vt 0.125000 0.750000
s 0
usemtl Material
f 1/1/1 5/13/1 7/19/1 3/7/1
f 4/10/2 3/8/2 7/20/2 8/22/2
f 8/23/3 7/21/3 5/14/3 6/16/3
f 6/17/4 2/4/4 4/11/4 8/24/4
f 2/5/5 1/2/5 3/9/5 4/12/5
f 6/18/6 5/15/6 1/3/6 2/6/6
