# Blender 3.5.1
# www.blender.org
mtllib untitled.mtl
o Cube
v 9.694042 9.694042 -9.694042
v 9.694042 -9.694042 -9.694042
v 9.694042 9.694042 9.694042
v 9.694042 -9.694042 9.694042
v -9.694042 9.694042 -9.694042
v -9.694042 -9.694042 -9.694042
v -9.694042 9.694042 9.694042
v -9.694042 -9.694042 9.694042
vn -0.0000 1.0000 -0.0000
vn -0.0000 -0.0000 1.0000
vn -1.0000 -0.0000 -0.0000
vn -0.0000 -1.0000 -0.0000
vn 1.0000 -0.0000 -0.0000
vn -0.0000 -0.0000 -1.0000
vt 0.900322 0.361411
vt 0.899325 0.360441
vt 0.900249 0.360764
vt 0.771646 0.360909
vt 0.771415 0.360441
vt 0.772653 0.360764
vt 0.900322 0.491130
vt 0.900120 0.491431
vt 0.899325 0.489126
vt 0.773408 0.491431
vt 0.771646 0.490287
vt 0.771415 0.489126
vt 0.990805 0.361411
vt 0.899504 0.228995
vt 0.900249 0.229681
vt 0.772688 0.228995
vt 0.720110 0.360909
vt 0.772653 0.229681
vt 0.990805 0.491130
vt 0.900120 0.619120
vt 0.899504 0.102179
vt 0.773408 0.619120
vt 0.772688 0.102179
vt 0.720110 0.490287
s 0
usemtl Material
f 1/1/1 5/13/1 7/19/1 3/7/1
f 4/10/2 3/8/2 7/20/2 8/22/2
f 8/23/3 7/21/3 5/14/3 6/16/3
f 6/17/4 2/4/4 4/11/4 8/24/4
f 2/5/5 1/2/5 3/9/5 4/12/5
f 6/18/6 5/15/6 1/3/6 2/6/6
