# Blender 3.5.1
# www.blender.org
mtllib smallSteve.mtl
o Cube
v 0.255967 1.407937 -0.096973
v 0.255967 0.776005 -0.096973
v 0.255967 1.407937 0.131074
v 0.255967 0.776005 0.131074
v -0.252771 1.407937 -0.096973
v -0.252771 0.776005 -0.096973
v -0.252771 1.407937 0.131074
v -0.252771 0.776005 0.131074
v 0.255967 1.407937 0.131074
v 0.255967 0.776005 0.131074
v -0.252771 1.407937 0.131074
v -0.252771 0.776005 0.131074
v 0.252264 0.127882 -0.052116
v 0.252264 0.773349 0.127878
v 0.252264 0.186545 -0.262483
v 0.252264 0.832012 -0.082489
v 0.008152 0.127882 -0.052116
v 0.008152 0.773349 0.127878
v 0.008152 0.186545 -0.262483
v 0.008152 0.832012 -0.082489
v -0.248188 0.832984 0.114558
v -0.248188 0.187517 0.294553
v -0.248188 0.774322 -0.095808
v -0.248188 0.128855 0.084186
v -0.004075 0.832984 0.114558
v -0.004075 0.187517 0.294553
v -0.004075 0.774322 -0.095808
v -0.004075 0.128855 0.084186
v -0.254456 0.707494 -0.050727
v -0.254456 1.352961 0.129267
v -0.254456 0.766156 -0.261094
v -0.254456 1.411623 -0.081100
v -0.498568 0.707494 -0.050727
v -0.498568 1.352961 0.129267
v -0.498568 0.766156 -0.261094
v -0.498568 1.411623 -0.081100
v 0.259217 1.411623 0.112186
v 0.259217 0.766156 0.292180
v 0.259217 1.352961 -0.098181
v 0.259217 0.707494 0.081813
v 0.503330 1.411623 0.112186
v 0.503330 0.766156 0.292180
v 0.503330 1.352961 -0.098181
v 0.503330 0.707494 0.081813
v -0.251565 1.413749 0.272140
v -0.251565 1.922487 0.272140
v -0.251565 1.413749 -0.236598
v -0.251565 1.922487 -0.236598
v 0.257173 1.413749 0.272140
v 0.257173 1.922487 0.272140
v 0.257173 1.413749 -0.236598
v 0.257173 1.922487 -0.236598
v 0.252264 0.060820 -0.297542
v 0.252264 0.002158 -0.087176
v 0.008152 0.060820 -0.297542
v 0.008152 0.002158 -0.087176
v -0.248188 0.067511 0.328017
v -0.248188 0.008849 0.117651
v -0.004075 0.008849 0.117651
v -0.004075 0.067511 0.328017
vn -0.0000 1.0000 -0.0000
vn -1.0000 -0.0000 -0.0000
vn -0.0000 -1.0000 -0.0000
vn 1.0000 -0.0000 -0.0000
vn -0.0000 -0.0000 -1.0000
vn -0.0000 -0.0000 1.0000
vn -0.0000 -0.2686 0.9632
vn -0.0000 0.2686 -0.9632
vn -0.0000 -0.9632 -0.2686
vn -0.0000 0.2686 0.9632
vn -0.0000 -0.2686 -0.9632
vn -0.0000 -0.9632 0.2686
vn -0.0000 0.9632 0.2686
vn -0.0000 0.9632 -0.2686
vt 0.625000 0.500000
vt 0.375000 0.500000
vt 0.625000 0.750000
vt 0.375000 0.750000
vt 0.875000 0.500000
vt 0.625000 0.250000
vt 0.125000 0.500000
vt 0.375000 0.250000
vt 0.875000 0.750000
vt 0.625000 0.000000
vt 0.375000 0.000000
vt 0.125000 0.750000
vt 0.625000 0.750000
vt 0.375000 0.750000
vt 0.625000 1.000000
vt 0.375000 1.000000
vt 0.375000 1.000000
vt 0.375000 0.000000
vt 0.625000 0.000000
vt 0.625000 1.000000
vt 0.875000 0.750000
vt 0.375000 0.250000
vt 0.625000 0.250000
vt 0.875000 0.500000
vt 0.375000 0.750000
vt 0.625000 0.750000
vt 0.375000 0.500000
vt 0.625000 0.500000
vt 0.375000 0.000000
vt 0.375000 1.000000
vt 0.125000 0.750000
vt 0.625000 0.000000
vt 0.625000 1.000000
vt 0.375000 0.250000
vt 0.125000 0.500000
vt 0.625000 0.250000
vt 0.375000 0.750000
vt 0.625000 0.750000
vt 0.375000 0.500000
vt 0.625000 0.500000
vt 0.375000 0.000000
vt 0.375000 1.000000
vt 0.125000 0.750000
vt 0.625000 0.000000
vt 0.625000 1.000000
vt 0.875000 0.750000
vt 0.375000 0.250000
vt 0.125000 0.500000
vt 0.625000 0.250000
vt 0.875000 0.500000
vt 0.375000 0.750000
vt 0.625000 0.750000
vt 0.375000 0.500000
vt 0.625000 0.500000
vt 0.375000 0.000000
vt 0.375000 1.000000
vt 0.125000 0.750000
vt 0.625000 0.000000
vt 0.625000 1.000000
vt 0.875000 0.750000
vt 0.375000 0.250000
vt 0.125000 0.500000
vt 0.625000 0.250000
vt 0.875000 0.500000
vt 0.375000 0.750000
vt 0.625000 0.750000
vt 0.375000 0.500000
vt 0.625000 0.500000
vt 0.375000 0.000000
vt 0.375000 1.000000
vt 0.125000 0.750000
vt 0.625000 0.000000
vt 0.625000 1.000000
vt 0.875000 0.750000
vt 0.375000 0.250000
vt 0.125000 0.500000
vt 0.625000 0.250000
vt 0.875000 0.500000
vt 0.375000 0.750000
vt 0.625000 0.750000
vt 0.375000 0.500000
vt 0.625000 0.500000
vt 0.125000 0.500000
vt 0.375000 0.250000
vt 0.375000 1.000000
vt 0.125000 0.750000
vt 0.375000 0.000000
vt 0.375000 0.500000
vt 0.375000 0.750000
vt 0.625000 0.000000
vt 0.875000 0.750000
vt 0.625000 1.000000
vt 0.875000 0.500000
vt 0.625000 0.250000
vt 0.625000 0.500000
vt 0.625000 0.750000
s 0
usemtl Material
f 1/1/1 5/5/1 7/9/1 3/3/1
f 8/11/2 7/10/2 5/6/2 6/8/2
f 6/7/3 2/2/3 4/4/3 8/12/3
f 2/2/4 1/1/4 3/3/4 4/4/4
f 6/8/5 5/6/5 1/1/5 2/2/5
f 10/14/6 9/13/6 11/15/6 12/16/6
f 13/18/2 14/19/2 16/23/2 15/22/2
f 15/22/7 16/23/7 20/28/7 19/27/7
f 19/27/4 20/28/4 18/26/4 17/25/4
f 17/25/8 18/26/8 14/20/8 13/17/8
f 17/25/8 13/17/8 54/85/8 56/89/8
f 20/28/9 16/24/9 14/21/9 18/26/9
f 21/29/4 22/32/4 24/36/4 23/34/4
f 23/34/10 24/36/10 28/40/10 27/39/10
f 27/39/2 28/40/2 26/38/2 25/37/2
f 25/37/11 26/38/11 22/33/11 21/30/11
f 23/35/12 27/39/12 25/37/12 21/31/12
f 24/36/4 22/32/4 57/90/4 58/94/4
f 29/41/2 30/44/2 32/49/2 31/47/2
f 31/47/7 32/49/7 36/54/7 35/53/7
f 35/53/4 36/54/4 34/52/4 33/51/4
f 33/51/8 34/52/8 30/45/8 29/42/8
f 31/48/13 35/53/13 33/51/13 29/43/13
f 36/54/9 32/50/9 30/46/9 34/52/9
f 37/55/4 38/58/4 40/63/4 39/61/4
f 39/61/10 40/63/10 44/68/10 43/67/10
f 43/67/2 44/68/2 42/66/2 41/65/2
f 41/65/11 42/66/11 38/59/11 37/56/11
f 39/62/12 43/67/12 41/65/12 37/57/12
f 44/68/14 40/64/14 38/60/14 42/66/14
f 45/69/2 46/72/2 48/77/2 47/75/2
f 47/75/5 48/77/5 52/82/5 51/81/5
f 51/81/4 52/82/4 50/80/4 49/79/4
f 49/79/6 50/80/6 46/73/6 45/70/6
f 47/76/3 51/81/3 49/79/3 45/71/3
f 52/82/1 48/78/1 46/74/1 50/80/1
f 53/83/13 55/88/13 56/89/13 54/86/13
f 15/22/7 19/27/7 55/88/7 53/84/7
f 13/18/2 15/22/2 53/84/2 54/87/2
f 19/27/4 17/25/4 56/89/4 55/88/4
f 59/95/14 58/93/14 57/91/14 60/96/14
f 22/33/11 26/38/11 60/96/11 57/92/11
f 28/40/10 24/36/10 58/94/10 59/95/10
f 26/38/2 28/40/2 59/95/2 60/96/2
